<svg xmlns="http://www.w3.org/2000/svg" width="810.613" height="848.937" viewBox="0 0 810.613 848.937">
  <path id="Path_4" data-name="Path 4" d="M801.018,436.346c-4.974,61.677,57.048,78.477,70.12,156.864,10.494,62.931-18.8,116.156-34.614,144.9-9.062,16.468-70.176,127.528-168.074,137.225-103.823,10.282-141.471-104.082-246.515-87.65-57.96,9.067-64.413,46.685-139.694,54.78-22.443,2.413-81.8,8.8-134.213-27.389C79.605,767.836,72.193,682.011,71.335,669.9c-6.852-96.634,63.248-112.464,63-205.428-.242-90.654-66.977-103.993-71.215-210.906-.928-23.435-3.857-97.319,46.565-156.126C158.436,40.58,241.482,16,309.632,31.708c93.3,21.506,94.747,103.8,172.561,112.3,83.462,9.117,110.218-82.453,210.906-79.432,57.11,1.714,112.5,33.093,145.08,77.724,58.809,80.561,25.611,180.076,23.17,187.017C839.887,390.388,804.721,390.4,801.018,436.346Z" transform="translate(-62.743 -27.052)" fill="rgba(245,245,245,0.22)"/>
</svg>
